<?xml version="1.0" ?><svg data-name="Layer 1" id="Layer_1" viewBox="0 0 508.33 508.36" xmlns="http://www.w3.org/2000/svg"><defs><style>.cls-1{fill:#3aaf85;fill-rule:evenodd;}.cls-2{fill:#fff;}</style></defs><title/><path class="cls-1" d="M485,29.72c11.45,15.13,16.61,40.21,19.15,70.7,3.36,45.5,4.71,100.1,6,156.52-1.67,57.47-2.35,115.43-6,156.52-2.88,31.54-9,52.66-19.22,65.47-13,12.79-37.94,23.59-73.5,26.15-43.25,3.69-96.61,3.65-155.48,5.1-65.44-1.12-109.82-.64-156.38-5.08-36.32-2.52-60.08-13.19-74.7-26.07-10.83-14.54-14-30-17-66.24-3.75-41.85-4.58-98.56-6-155.54C4,200.57,4.13,143.44,7.9,100.74,10.43,67.05,14.42,44.4,24.65,30,39,17.77,63.48,11.69,100,8.69c50-5.85,102.06-7,155.88-6.87,55.39.09,108.56,1.67,156,6.34,32,2.56,58.48,8.07,73.07,21.56Z" transform="translate(-1.83 -1.82)"/><path class="cls-2" d="M398.36,257.46A26.21,26.21,0,0,0,365.15,241l-27.83,9.37-18.86-56,27.1-9.12a26.21,26.21,0,1,0-16.73-49.69l-27.1,9.12-9.13-27.12A26.21,26.21,0,0,0,259.4,101h0a26.21,26.21,0,0,0-16.48,33.21L252,161.34,194.83,180.6l-9-26.79a26.21,26.21,0,0,0-49.69,16.73l9,26.79-27.28,9.18a26.21,26.21,0,0,0-16.48,33.21h0a26.21,26.21,0,0,0,33.21,16.48L161.86,247l18.86,56L154.17,312a26.21,26.21,0,1,0,16.72,49.69l26.55-8.94,9.68,28.77a26.21,26.21,0,0,0,49.69-16.73L247.14,336l57.22-19.26,9.57,28.44a26.21,26.21,0,1,0,49.69-16.72L354,300l27.83-9.37A26.21,26.21,0,0,0,398.36,257.46ZM230.41,286.33l-18.86-56L268.77,211l18.86,56Z" transform="translate(-1.83 -1.82)"/></svg>