<?xml version="1.0" ?><svg data-name="Layer 1" id="Layer_1" viewBox="0 0 508.33 508.36" xmlns="http://www.w3.org/2000/svg"><defs><style>.cls-1{fill:#fffc00;fill-rule:evenodd;}.cls-2{fill:#fff;}</style></defs><title/><path class="cls-1" d="M485,29.72c11.45,15.13,16.61,40.21,19.15,70.7,3.36,45.5,4.71,100.1,6,156.52-1.67,57.47-2.35,115.43-6,156.52-2.88,31.54-9,52.66-19.22,65.47-13,12.79-37.94,23.59-73.5,26.15-43.25,3.69-96.61,3.65-155.48,5.1-65.44-1.12-109.82-.64-156.38-5.08-36.32-2.52-60.08-13.19-74.7-26.07-10.83-14.54-14-30-17-66.24-3.75-41.85-4.58-98.56-6-155.54C4,200.57,4.13,143.44,7.9,100.74,10.43,67.05,14.42,44.4,24.65,30,39,17.77,63.48,11.69,100,8.69c50-5.85,102.06-7,155.88-6.87,55.39.09,108.56,1.67,156,6.34,32,2.56,58.48,8.07,73.07,21.56Z" transform="translate(-1.83 -1.82)"/><path class="cls-2" d="M251.64,389.56c-.77,0-1.53,0-2.29-.06h0c-.48,0-1,.06-1.49.06-17.74,0-29.13-8.05-40.14-15.84-7.6-5.37-14.78-10.45-23.23-11.85a75,75,0,0,0-12.2-1,83.45,83.45,0,0,0-16.91,1.91,37,37,0,0,1-6.3.91c-1.71,0-3.57-.37-4.38-3.13-.7-2.39-1.21-4.7-1.7-6.94-1.26-5.76-2.15-9.3-4.57-9.67-28.14-4.35-36.2-10.27-38-14.48a5.41,5.41,0,0,1-.43-1.8,3.17,3.17,0,0,1,2.65-3.3c43.26-7.12,62.66-51.34,63.46-53.22l.07-.15c2.65-5.37,3.17-10,1.55-13.84-3-7-12.65-10.07-19.06-12.1-1.57-.5-3.05-1-4.23-1.43-12.79-5.06-13.85-10.25-13.35-12.89C132,226.19,138,223,142.85,223a8.23,8.23,0,0,1,3.5.7c5.75,2.7,10.94,4.06,15.41,4.06,6.18,0,8.88-2.6,9.21-2.94-.16-2.93-.35-6-.55-9.14-1.29-20.45-2.88-45.87,3.59-60.37,19.39-43.48,60.52-46.86,72.66-46.86l5.32-.05h.72c12.17,0,53.39,3.38,72.79,46.89,6.47,14.51,4.87,39.95,3.58,60.39l-.05.89c-.18,2.85-.35,5.61-.5,8.26.31.32,2.79,2.7,8.4,2.92h0a38.58,38.58,0,0,0,14.52-4,11,11,0,0,1,4.51-.89,13.78,13.78,0,0,1,5.19,1l.09,0c4.35,1.54,7.19,4.59,7.25,7.77.06,3-2.23,7.5-13.45,11.93-1.16.46-2.65.93-4.22,1.43-6.42,2-16.09,5.11-19.06,12.1-1.62,3.82-1.1,8.47,1.54,13.84l.07.16c.81,1.88,20.19,46.08,63.47,53.21a3.17,3.17,0,0,1,2.65,3.31,5.33,5.33,0,0,1-.44,1.81c-1.79,4.18-9.83,10.09-38,14.44-2.3.35-3.19,3.35-4.56,9.63-.5,2.29-1,4.53-1.7,6.9a3.76,3.76,0,0,1-4,3h-.35a35.25,35.25,0,0,1-6.3-.79,84,84,0,0,0-16.91-1.79,75.1,75.1,0,0,0-12.21,1c-8.45,1.41-15.62,6.47-23.21,11.84C280.78,381.51,269.39,389.56,251.64,389.56Z" transform="translate(-1.83 -1.82)"/></svg>